<?xml version="1.0" standalone="no"?>
<!DOCTYPE svg PUBLIC "-//W3C//DTD SVG 20010904//EN"
 "http://www.w3.org/TR/2001/REC-SVG-20010904/DTD/svg10.dtd">
<svg version="1.0" xmlns="http://www.w3.org/2000/svg"
 width="1707.000000pt" height="1707.000000pt" viewBox="0 0 1707.000000 1707.000000"
 preserveAspectRatio="xMidYMid meet">
<metadata>
Created by potrace 1.14, written by Peter Selinger 2001-2017
</metadata>
<g transform="translate(0.000000,1707.000000) scale(0.100000,-0.100000)"
fill="#000000" stroke="none">
<path d="M2715 15515 c-43 -22 -65 -52 -65 -88 0 -16 18 -105 39 -196 34 -145
62 -295 77 -411 2 -19 6 -51 9 -70 9 -64 14 -105 20 -155 3 -27 8 -61 10 -75
2 -14 6 -52 10 -85 8 -80 25 -224 30 -255 2 -14 6 -50 10 -80 3 -30 8 -71 10
-90 3 -19 7 -54 10 -77 3 -24 10 -75 15 -115 6 -40 13 -91 16 -113 13 -95 74
-449 98 -565 3 -14 11 -50 17 -80 13 -65 65 -280 79 -330 5 -19 24 -84 41
-145 42 -148 109 -358 154 -480 20 -55 41 -111 45 -125 8 -25 80 -199 105
-255 7 -16 34 -77 60 -135 47 -105 194 -402 233 -472 12 -21 38 -68 58 -105
20 -37 45 -80 56 -95 10 -14 18 -29 18 -32 0 -10 226 -370 308 -491 102 -150
238 -337 346 -475 49 -63 103 -133 120 -155 17 -21 46 -56 65 -77 19 -21 41
-48 50 -60 17 -24 93 -108 176 -192 91 -93 238 -214 400 -329 22 -16 213 -143
425 -284 577 -384 639 -425 677 -458 34 -29 35 -31 24 -71 -28 -104 -210 -213
-477 -284 -114 -31 -184 -34 -704 -35 -420 0 -657 6 -770 20 -19 2 -57 7 -85
10 -27 3 -63 7 -80 10 -16 3 -43 7 -60 9 -55 7 -209 37 -270 51 -33 8 -71 16
-85 19 -124 22 -394 99 -540 153 -192 72 -534 236 -950 455 -47 25 -168 89
-270 143 -102 53 -216 114 -255 135 -255 137 -706 370 -814 419 -106 48 -137
54 -182 31 -94 -48 -316 -363 -396 -561 -40 -100 -51 -181 -46 -356 8 -271 8
-348 1 -351 -4 -1 -26 -9 -48 -17 -61 -21 -126 -70 -215 -160 -101 -101 -170
-231 -189 -355 -3 -19 -8 -46 -12 -60 -11 -48 -10 -326 3 -425 20 -153 23
-171 43 -250 43 -170 147 -357 271 -489 49 -53 57 -66 47 -78 -127 -133 -277
-349 -298 -430 -25 -90 -42 -403 -26 -483 2 -11 7 -47 11 -80 13 -107 89 -267
192 -405 31 -41 142 -159 246 -262 l189 -188 -8 -112 c-10 -148 -11 -442 -1
-493 12 -64 27 -105 69 -190 136 -274 338 -430 783 -605 99 -39 186 -74 193
-78 8 -4 24 -39 36 -77 12 -39 30 -86 39 -105 30 -67 79 -186 118 -290 45
-119 52 -135 87 -205 84 -166 223 -306 460 -463 35 -23 65 -42 68 -42 2 0 32
-17 66 -38 258 -158 582 -261 719 -231 190 43 291 174 644 834 21 39 52 97 70
130 56 104 121 226 180 340 32 61 61 115 65 120 4 6 31 55 60 110 29 55 70
131 92 168 21 38 38 70 38 72 0 2 15 30 34 62 18 32 45 78 58 103 76 137 158
279 214 372 207 342 414 597 606 745 81 62 269 153 348 168 8 1 33 6 55 10
131 26 516 40 650 24 143 -17 162 -20 236 -34 205 -38 510 -122 1114 -308 540
-167 858 -254 1070 -294 22 -4 42 -8 45 -8 3 -1 28 -5 55 -10 28 -4 59 -9 70
-11 17 -4 65 -11 195 -30 170 -24 843 -23 1080 1 25 3 101 14 170 26 663 109
1173 297 1650 608 79 51 259 183 291 213 8 7 48 42 89 77 182 157 372 366 553
611 44 59 157 228 157 234 0 3 13 24 29 48 52 78 182 310 282 503 286 555 508
1138 684 1800 7 28 32 118 55 200 23 83 49 175 57 205 8 30 19 70 24 88 5 17
13 47 18 65 5 17 17 56 25 85 9 28 22 73 30 100 250 847 484 1235 844 1403
150 70 297 113 487 143 85 14 443 15 515 2 14 -2 52 -7 85 -11 33 -3 71 -8 85
-10 14 -3 55 -7 91 -11 36 -3 79 -7 95 -9 16 -3 103 -7 194 -9 182 -5 226 3
248 44 19 36 7 106 -25 149 -34 47 -133 141 -209 199 -506 388 -591 476 -838
874 -226 363 -295 438 -501 542 -275 138 -604 214 -931 214 -286 0 -484 -61
-765 -234 -102 -63 -280 -195 -344 -255 -22 -21 -50 -46 -61 -56 -12 -10 -86
-79 -165 -154 -173 -164 -208 -197 -474 -441 -263 -242 -437 -378 -655 -513
-250 -155 -345 -201 -469 -225 -25 -5 -55 -11 -66 -14 -87 -18 -296 -25 -395
-13 -177 21 -546 212 -870 451 -108 79 -149 116 -268 238 -173 177 -250 310
-442 763 -189 445 -301 647 -499 895 -74 94 -274 300 -361 373 -157 132 -488
307 -865 457 -11 4 -46 20 -78 34 -32 14 -60 26 -64 26 -3 0 -56 19 -117 41
-220 82 -485 169 -981 325 -44 13 -100 31 -125 39 -72 23 -659 199 -835 250
-88 26 -203 60 -255 75 -52 16 -151 45 -220 65 -69 19 -136 40 -150 44 -14 5
-45 14 -70 21 -25 7 -65 20 -90 28 -25 8 -58 18 -75 22 -57 14 -450 139 -580
183 -322 111 -496 185 -889 377 -447 218 -541 251 -611 215z m5818 -2809 c2
-6 3 -318 3 -693 l-1 -683 195 0 c444 1 1109 -5 1165 -10 l60 -5 -45 -6 c-25
-3 -343 -6 -706 -7 l-661 -1 -55 57 c-29 31 -85 91 -123 132 -39 42 -122 132
-186 200 -64 69 -145 156 -180 195 -35 38 -74 80 -86 93 -13 12 -23 27 -23 32
0 6 33 10 73 11 332 4 539 8 542 11 2 2 -693 473 -743 503 -9 6 -19 13 -22 16
-3 3 -51 36 -108 74 -56 38 -108 75 -114 82 -10 12 65 14 500 12 348 -2 512
-6 515 -13z m-1193 -1387 l115 -5 -90 -4 c-135 -5 -3443 -6 -3570 0 -96 4
-103 5 -50 10 78 7 3445 7 3595 -1z m8820 1 l85 -6 -105 -4 c-118 -6 -3203 -5
-3320 1 -72 3 -71 3 35 8 141 8 3192 8 3305 1z m-12205 -3295 c220 -5 277 -9
369 -26 27 -5 49 -9 50 -9 1 0 1 -76 1 -170 l0 -170 -40 -1 c-249 -4 -2017 0
-2022 5 -5 4 -8 363 -4 384 1 4 1338 -7 1646 -13z"/>
</g>
</svg>
